<svg width="64" xmlns="http://www.w3.org/2000/svg" height="64" viewBox="0 0 64 64" xmlns:xlink="http://www.w3.org/1999/xlink" enable-background="new 0 0 64 64">
<path d="m23.379,22.619l12.668,15.078c.138-.232 .384-.454 .806-.614l-16.179-29.97c-.753-1.405-2.502-1.933-3.907-1.18-1.405,.753-1.933,2.502-1.18,3.907l7.792,12.779z"/>
<path d="m54.054,46.911l-.135-.031c-.064-.015-.128-.027-.192-.039l-.197-.039c-1.449-.308-2.93-.465-4.401-.465l-.311,.002c-1.824,.027-3.515,.187-5.114,.467 .962,1.104 2.385,2.865 .475,4.537-.03,.026-.061,.044-.092,.069-.504,.414-1.035,.631-1.582,.631-.604,0-1.126-.251-1.591-.609-.466-.36-.876-.828-1.255-1.261l-1.564-1.687c-.943,.419-1.858,.895-2.746,1.444-.642,.397-1.278,.805-1.913,1.212-.814,.522-1.656,1.062-2.504,1.574-.507,.306-1.021,.599-1.535,.892-.437,.249-.874,.497-1.331,.77-.591,.352-1.205,.714-1.89,.977 .04,.091 .143,.291 .293,.504 .201,.285 .797,.9 1.434,1.117 .342,.116 .741,.188 1.196,.214 2.452,.144 5.821-1.053 5.961-1.098 1.87-.713 7.028-1.63 7.074-1.635 4.026-.587 8.927-.757 8.973-.762l.031-.002c.017-.001 .746-.101 1.398-.631 .926-.753 1.19-1.859 1.205-1.924 .182-.733 .293-1.438 .363-2.096 .066-.81 .066-1.532 .043-2.111-.028-.005-.071-.015-.093-.02z"/>
<path d="m57.54,46.295c-.123-.32-.277-.584-.277-.584-.753-1.433-1.606-2.63-2.521-3.633-.236-.259-.406-.384-.504-.384-.136,0-.131,.243 .034,.705 .105,.294 .19,.572 .26,.828 .114,.419 .132,.63 .075,.63-.053,0-.17-.184-.335-.556-.37-.837-.782-1.58-1.207-2.235-.457-.705-1.448-1.627-2.186-2.027-.386-.209-.774-.397-1.163-.565-.221-.095-.392-.141-.512-.141-.3,0-.281,.281 .079,.761 .85,1.133 1.43,2.32 1.794,3.214 .168,.412 .209,.62 .145,.62-.057,0-.198-.166-.408-.501-1.143-1.828-2.369-3.155-3.533-4.119-.647-.536-1.895-1.023-2.732-1.092-.35-.029-.691-.047-1.02-.056-.03-.001-.059-.001-.087-.001-.755,0-.776,.298-.087,.725 2.104,1.302 3.185,3.027 3.719,4.236 .183,.414 .213,.626 .127,.626-.074,0-.234-.156-.456-.473-1.556-2.217-3.424-3.551-5.154-4.354-.637-.296-1.422-.455-1.894-.455-.093,0-.173,.006-.238,.019-.454,.087-.71,.158-.71,.158-.463,.095-.914,.201-1.353,.316-.024,.006-.041,.014-.063,.021-.666,.195-.571,.493 .191,.773 .103,.038 .195,.085 .294,.126 2.358,.961 3.824,2.659 4.607,3.858 .251,.384 .325,.582 .248,.582-.064,0-.232-.137-.49-.418-1.197-1.303-2.464-2.19-3.705-2.798-.225-.11-.448-.211-.671-.303l1.418,1.688 3.735,4.445c1.889-.373 3.833-.559 5.841-.589 .109-.002 .217-.002 .326-.002 1.553,0 3.091,.164 4.609,.487 .136,.029 .272,.05 .408,.082 .157,.037 1.208,.269 2.124,.509 .361,.095 .677,.147 .905,.147 .289-.002 .438-.085 .367-.27z"/>
<path d="m31.422,41.287l-.571-.616c-.329,.306-.134,.546 .54,.612 .01,.001 .02,.003 .031,.004z"/>
<path d="m30.391,50.039c-.624-.082-1.243-.119-1.851-.119-1.647,0-3.208,.269-4.561,.63-.561,.149-1.086,.313-1.569,.482-.793,.277-1.723,1.086-2.148,1.716-.425,.63-.136,1.194 .68,1.395 1.068,.264 2.107,.589 3.229,.589 .209,0 .42-.011 .636-.036 .341-.04 .66-.137 .971-.254 .631-.237 1.217-.588 1.801-.936 .939-.559 1.901-1.078 2.836-1.643 1.488-.898 2.93-1.867 4.408-2.781 .84-.52 1.698-.959 2.564-1.357l-5.076-5.486c-.762-.144-1.487-.239-2.152-.239-.012,0-.025,0-.037,0-.839,0-2.043,.485-2.676,1.018-.444,.373-.859,.754-1.246,1.128-.525,.508-.44,.819 .139,.819 .087,0 .184-.006 .293-.02 .487-.064 .956-.092 1.406-.092 3.464,0 5.806,1.713 6.619,2.417 .063,.052 .116,.099 .16,.138 .046,.041 .054,.061 .031,.061-.021,0-.068-.017-.138-.052-.089-.044-.177-.086-.264-.126-2.328-1.125-4.426-1.519-6.225-1.519-1,0-1.907,.122-2.709,.307-.818,.189-1.883,.969-2.358,1.661-.27,.394-.5,.756-.692,1.076-.366,.61-.296,1.015 .092,1.015 .07,0 .151-.013 .241-.041 .367-.112 .726-.208 1.078-.286 1.029-.224 1.99-.312 2.865-.312 1.56,0 2.843,.279 3.74,.561 .614,.193 .727,.321 .371,.321-.111,.003-.263-.009-.458-.035z"/>
<path d="m31.382,39.773l.353,.38 1.323,1.428 1.058,1.142 4.238,4.572 .208,.225 .157,.169 .32,.345 .046,.05 1.308,1.411c.732,.836 1.381,1.55 2.113,1.55 .318,0 .652-.135 1.015-.453 .149-.131 .267-.26 .357-.39 .634-.911-.111-1.806-1.03-2.856l-.265-.315-.059-.071-.302-.36-.361-.43-.284-.339-5.559-6.616-.481-.573-.452-.538-8.248-9.817-17.12-20.374c-.57-.652-1.37-.985-2.173-.985-.675,0-1.352,.235-1.9,.714-1.199,1.05-1.321,2.873-.271,4.072l25.655,27.678 .354,.381z"/>
</svg>
